<mxfile host="65bd71144e">
    <diagram id="n_PGgjzYY90XFIyNxaz5" name="第 1 页">
        <mxGraphModel dx="1264" dy="888" grid="1" gridSize="10" guides="1" tooltips="1" connect="1" arrows="1" fold="1" page="1" pageScale="1" pageWidth="827" pageHeight="1169" math="0" shadow="0">
            <root>
                <mxCell id="0"/>
                <mxCell id="1" parent="0"/>
                <mxCell id="2" value="" style="rounded=0;whiteSpace=wrap;html=1;fontSize=16;" parent="1" vertex="1">
                    <mxGeometry x="10" y="10" width="780" height="480" as="geometry"/>
                </mxCell>
                <mxCell id="3" value="渲染进程" style="text;html=1;strokeColor=none;fillColor=none;align=center;verticalAlign=middle;whiteSpace=wrap;rounded=0;fontSize=20;" parent="1" vertex="1">
                    <mxGeometry x="320" y="20" width="150" height="30" as="geometry"/>
                </mxCell>
                <mxCell id="4" value="上一帧" style="text;html=1;strokeColor=none;fillColor=none;align=center;verticalAlign=middle;whiteSpace=wrap;rounded=0;fontSize=16;" parent="1" vertex="1">
                    <mxGeometry x="140" y="76" width="60" height="30" as="geometry"/>
                </mxCell>
                <mxCell id="5" value="主线程" style="text;html=1;strokeColor=none;fillColor=none;align=center;verticalAlign=middle;whiteSpace=wrap;rounded=0;fontSize=16;" parent="1" vertex="1">
                    <mxGeometry x="50" y="150" width="60" height="30" as="geometry"/>
                </mxCell>
                <mxCell id="6" value="合成线程" style="text;html=1;strokeColor=none;fillColor=none;align=center;verticalAlign=middle;whiteSpace=wrap;rounded=0;fontSize=16;" parent="1" vertex="1">
                    <mxGeometry x="40" y="250" width="90" height="30" as="geometry"/>
                </mxCell>
                <mxCell id="7" value="下一帧" style="text;html=1;strokeColor=none;fillColor=none;align=center;verticalAlign=middle;whiteSpace=wrap;rounded=0;fontSize=16;" parent="1" vertex="1">
                    <mxGeometry x="650" y="77" width="60" height="30" as="geometry"/>
                </mxCell>
                <mxCell id="13" value="DOM" style="rounded=0;whiteSpace=wrap;html=1;fontSize=16;fillColor=#1ba1e2;fontColor=#ffffff;strokeColor=#006EAF;" parent="1" vertex="1">
                    <mxGeometry x="180" y="140" width="70" height="40" as="geometry"/>
                </mxCell>
                <mxCell id="14" value="Style" style="rounded=0;whiteSpace=wrap;html=1;fontSize=16;fillColor=#1ba1e2;fontColor=#ffffff;strokeColor=#006EAF;" parent="1" vertex="1">
                    <mxGeometry x="240" y="140" width="80" height="40" as="geometry"/>
                </mxCell>
                <mxCell id="15" value="Layout" style="rounded=0;whiteSpace=wrap;html=1;fontSize=16;fillColor=#1ba1e2;fontColor=#ffffff;strokeColor=#006EAF;" parent="1" vertex="1">
                    <mxGeometry x="320" y="140" width="70" height="40" as="geometry"/>
                </mxCell>
                <mxCell id="16" value="Layer" style="rounded=0;whiteSpace=wrap;html=1;fontSize=16;fillColor=#1ba1e2;fontColor=#ffffff;strokeColor=#006EAF;" parent="1" vertex="1">
                    <mxGeometry x="390" y="140" width="70" height="40" as="geometry"/>
                </mxCell>
                <mxCell id="17" value="Paint" style="rounded=0;whiteSpace=wrap;html=1;fontSize=16;fillColor=#1ba1e2;fontColor=#ffffff;strokeColor=#006EAF;" parent="1" vertex="1">
                    <mxGeometry x="460" y="140" width="50" height="40" as="geometry"/>
                </mxCell>
                <mxCell id="18" value="prepare tiles" style="rounded=0;whiteSpace=wrap;html=1;fontSize=16;fillColor=#1ba1e2;fontColor=#ffffff;strokeColor=#006EAF;" parent="1" vertex="1">
                    <mxGeometry x="530" y="225" width="100" height="40" as="geometry"/>
                </mxCell>
                <mxCell id="21" value="" style="line;strokeWidth=2;html=1;fontSize=16;" parent="1" vertex="1">
                    <mxGeometry x="160" y="180" width="560" height="10" as="geometry"/>
                </mxCell>
                <mxCell id="22" value="" style="line;strokeWidth=2;html=1;fontSize=16;" parent="1" vertex="1">
                    <mxGeometry x="160" y="270" width="560" height="10" as="geometry"/>
                </mxCell>
                <mxCell id="23" value="当前处理帧" style="text;html=1;strokeColor=none;fillColor=none;align=center;verticalAlign=middle;whiteSpace=wrap;rounded=0;fontSize=16;" parent="1" vertex="1">
                    <mxGeometry x="360" y="77" width="120" height="30" as="geometry"/>
                </mxCell>
                <mxCell id="25" value="" style="line;strokeWidth=2;html=1;fontSize=16;" parent="1" vertex="1">
                    <mxGeometry x="155" y="100" width="560" height="10" as="geometry"/>
                </mxCell>
                <mxCell id="26" value="" style="edgeStyle=segmentEdgeStyle;endArrow=classic;html=1;curved=0;rounded=0;endSize=8;startSize=8;entryX=0.59;entryY=0.067;entryDx=0;entryDy=0;entryPerimeter=0;fontSize=16;" parent="1" target="22" edge="1">
                    <mxGeometry width="50" height="50" relative="1" as="geometry">
                        <mxPoint x="490" y="190" as="sourcePoint"/>
                        <mxPoint x="540" y="140" as="targetPoint"/>
                    </mxGeometry>
                </mxCell>
                <mxCell id="27" value="commit" style="text;html=1;strokeColor=none;fillColor=none;align=center;verticalAlign=middle;whiteSpace=wrap;rounded=0;fontSize=16;" parent="1" vertex="1">
                    <mxGeometry x="430" y="225" width="60" height="30" as="geometry"/>
                </mxCell>
                <mxCell id="28" value="" style="rounded=0;whiteSpace=wrap;html=1;fontSize=16;" vertex="1" parent="1">
                    <mxGeometry x="380" y="320" width="360" height="140" as="geometry"/>
                </mxCell>
                <mxCell id="29" value="栅格化线程池" style="text;html=1;strokeColor=none;fillColor=none;align=center;verticalAlign=middle;whiteSpace=wrap;rounded=0;fontSize=16;" vertex="1" parent="1">
                    <mxGeometry x="300" y="375" width="60" height="30" as="geometry"/>
                </mxCell>
                <mxCell id="30" value="" style="line;strokeWidth=2;html=1;fontSize=16;" vertex="1" parent="1">
                    <mxGeometry x="470" y="375" width="240" height="10" as="geometry"/>
                </mxCell>
                <mxCell id="33" value="" style="line;strokeWidth=2;html=1;fontSize=16;" vertex="1" parent="1">
                    <mxGeometry x="470" y="405" width="240" height="10" as="geometry"/>
                </mxCell>
                <mxCell id="34" value="" style="line;strokeWidth=2;html=1;fontSize=16;" vertex="1" parent="1">
                    <mxGeometry x="470" y="440" width="240" height="10" as="geometry"/>
                </mxCell>
                <mxCell id="35" value="raster task" style="rounded=0;whiteSpace=wrap;html=1;fontSize=16;fillColor=#1ba1e2;fontColor=#ffffff;strokeColor=#006EAF;" vertex="1" parent="1">
                    <mxGeometry x="530" y="335" width="100" height="40" as="geometry"/>
                </mxCell>
                <mxCell id="36" value="..." style="text;html=1;strokeColor=none;fillColor=none;align=center;verticalAlign=middle;whiteSpace=wrap;rounded=0;rotation=90;fontSize=16;" vertex="1" parent="1">
                    <mxGeometry x="570" y="415" width="50" height="25" as="geometry"/>
                </mxCell>
                <mxCell id="37" value="" style="shape=curlyBracket;whiteSpace=wrap;html=1;rounded=1;labelPosition=left;verticalLabelPosition=middle;align=right;verticalAlign=middle;fontSize=16;" vertex="1" parent="1">
                    <mxGeometry x="440" y="375" width="20" height="65" as="geometry"/>
                </mxCell>
                <mxCell id="38" value="栅格化线程" style="text;html=1;strokeColor=none;fillColor=none;align=center;verticalAlign=middle;whiteSpace=wrap;rounded=0;fontSize=16;" vertex="1" parent="1">
                    <mxGeometry x="414" y="376" width="20" height="64" as="geometry"/>
                </mxCell>
                <mxCell id="39" value="" style="rounded=0;whiteSpace=wrap;html=1;fontSize=16;" vertex="1" parent="1">
                    <mxGeometry x="460" y="530" width="460" height="180" as="geometry"/>
                </mxCell>
                <mxCell id="44" value="" style="edgeStyle=none;html=1;fontSize=16;" edge="1" parent="1" source="40" target="41">
                    <mxGeometry relative="1" as="geometry"/>
                </mxCell>
                <mxCell id="40" value="生成位图" style="rounded=0;whiteSpace=wrap;html=1;fontSize=16;" vertex="1" parent="1">
                    <mxGeometry x="490" y="595" width="120" height="60" as="geometry"/>
                </mxCell>
                <mxCell id="41" value="生成的位图保存在GPU内存中" style="rounded=0;whiteSpace=wrap;html=1;fontSize=16;" vertex="1" parent="1">
                    <mxGeometry x="760" y="580" width="140" height="90" as="geometry"/>
                </mxCell>
                <mxCell id="42" value="" style="edgeStyle=none;html=1;fontSize=16;exitX=0.25;exitY=1;exitDx=0;exitDy=0;" edge="1" parent="1" source="35" target="40">
                    <mxGeometry relative="1" as="geometry"/>
                </mxCell>
                <mxCell id="45" value="" style="edgeStyle=none;html=1;fontSize=16;" edge="1" parent="1" source="18" target="35">
                    <mxGeometry relative="1" as="geometry"/>
                </mxCell>
                <mxCell id="46" value="GPU进程" style="text;html=1;strokeColor=none;fillColor=none;align=center;verticalAlign=middle;whiteSpace=wrap;rounded=0;fontSize=20;" vertex="1" parent="1">
                    <mxGeometry x="630" y="550" width="150" height="30" as="geometry"/>
                </mxCell>
            </root>
        </mxGraphModel>
    </diagram>
</mxfile>